<svg id="svg" version="1.1" xmlns="http://www.w3.org/2000/svg" xmlns:xlink="http://www.w3.org/1999/xlink" width="400" height="237.03703703703704" viewBox="0, 0, 400,237.03703703703704"><g id="svgg"><path id="path0" d="M0.000 118.554 L 0.000 237.107 200.000 237.107 L 400.000 237.107 400.000 118.554 L 400.000 0.000 200.000 0.000 L 0.000 0.000 0.000 118.554 M169.790 78.196 C 170.519 78.325,171.320 78.550,171.569 78.694 C 171.818 78.838,172.288 79.065,172.614 79.198 C 174.669 80.034,178.779 83.596,178.779 84.541 C 178.779 84.730,178.876 84.884,178.995 84.884 C 179.202 84.884,180.202 86.733,180.202 87.117 C 180.202 87.219,180.350 87.639,180.532 88.050 C 181.137 89.419,181.433 93.997,181.349 100.712 L 181.269 107.173 200.178 107.173 L 219.087 107.172 219.089 98.459 C 219.090 91.192,219.149 89.632,219.444 89.066 C 219.639 88.692,219.798 88.092,219.798 87.732 C 219.798 87.371,219.959 86.944,220.154 86.781 C 220.350 86.619,220.510 86.380,220.510 86.250 C 220.510 83.995,226.218 79.147,229.994 78.195 C 232.296 77.615,237.758 77.968,239.360 78.800 C 239.751 79.003,240.231 79.228,240.427 79.299 C 240.775 79.425,241.381 79.788,242.032 80.261 C 243.027 80.983,245.406 83.340,245.406 83.604 C 245.406 83.774,245.547 83.998,245.720 84.102 C 245.893 84.206,246.106 84.452,246.193 84.647 C 246.280 84.843,246.443 85.163,246.555 85.359 C 246.823 85.825,247.460 87.267,247.621 87.771 C 247.748 88.168,248.726 88.126,248.726 87.723 C 248.726 87.534,249.943 86.905,251.659 86.207 C 252.923 85.692,258.097 85.678,259.072 86.187 C 259.445 86.382,259.925 86.542,260.137 86.543 C 260.349 86.544,260.656 86.704,260.818 86.900 C 260.980 87.095,261.240 87.255,261.394 87.255 C 262.257 87.255,266.271 91.531,266.271 92.450 C 266.271 92.571,266.421 92.973,266.604 93.342 C 267.572 95.296,267.697 96.262,267.695 101.778 L 267.694 107.172 268.583 107.183 C 269.993 107.199,273.622 108.060,273.622 108.377 C 273.622 108.497,273.782 108.595,273.977 108.595 C 274.173 108.595,274.547 108.809,274.807 109.069 C 275.068 109.330,275.373 109.544,275.485 109.544 C 275.597 109.544,276.051 109.928,276.493 110.399 C 276.935 110.869,277.484 111.426,277.712 111.637 C 277.940 111.848,278.127 112.147,278.127 112.303 C 278.127 112.459,278.212 112.622,278.315 112.665 C 278.641 112.802,279.549 114.750,279.549 115.313 C 279.549 115.609,279.678 115.979,279.835 116.136 C 280.232 116.534,280.242 120.564,279.846 120.960 C 279.683 121.123,279.549 121.493,279.549 121.783 C 279.549 122.461,278.502 124.545,277.757 125.349 C 277.439 125.692,277.178 126.058,277.178 126.162 C 277.178 126.420,274.436 128.512,274.097 128.512 C 273.947 128.512,273.665 128.672,273.469 128.868 C 273.274 129.063,272.823 129.223,272.467 129.223 C 272.111 129.223,271.697 129.346,271.548 129.495 C 271.398 129.645,270.470 129.819,269.485 129.882 L 267.694 129.997 267.684 135.360 C 267.676 139.411,267.590 140.955,267.332 141.672 C 267.144 142.193,266.988 142.785,266.986 142.987 C 266.971 144.523,263.446 148.997,261.663 149.742 C 261.216 149.929,260.791 150.178,260.718 150.296 C 260.646 150.413,260.185 150.584,259.694 150.676 C 259.204 150.768,258.662 150.959,258.491 151.100 C 257.642 151.802,250.148 151.087,250.148 150.304 C 250.148 150.211,249.828 150.024,249.437 149.887 C 249.046 149.751,248.726 149.540,248.726 149.418 C 248.726 148.991,247.755 148.920,247.621 149.337 C 246.483 152.893,241.513 158.151,239.289 158.151 C 239.024 158.151,238.771 158.256,238.728 158.384 C 238.394 159.369,229.189 159.411,228.862 158.429 C 228.811 158.276,228.556 158.151,228.297 158.151 C 226.720 158.151,221.221 153.393,221.221 152.029 C 221.221 151.907,221.061 151.674,220.865 151.512 C 220.670 151.349,220.510 151.029,220.510 150.800 C 220.510 150.571,220.350 150.251,220.154 150.089 C 219.959 149.927,219.798 149.553,219.798 149.259 C 219.798 148.965,219.638 148.341,219.443 147.873 C 219.149 147.170,219.087 145.536,219.087 138.478 L 219.087 129.935 200.178 129.935 L 181.269 129.935 181.347 136.751 C 181.427 143.783,181.189 147.380,180.511 149.378 C 180.018 150.831,180.021 150.825,179.491 151.630 C 179.234 152.021,178.917 152.583,178.787 152.878 C 178.333 153.910,175.084 156.860,173.649 157.542 C 172.884 157.906,172.045 158.319,171.784 158.460 C 171.523 158.600,170.830 158.795,170.243 158.893 C 169.656 158.990,168.616 159.188,167.931 159.332 C 167.024 159.524,166.349 159.524,165.442 159.334 C 164.757 159.190,163.612 158.978,162.897 158.862 C 162.182 158.746,161.560 158.538,161.514 158.401 C 161.468 158.263,161.288 158.151,161.114 158.151 C 159.557 158.151,153.883 153.111,153.883 151.728 C 153.883 151.507,153.723 151.264,153.527 151.189 C 153.324 151.111,153.171 150.757,153.171 150.362 C 153.171 149.291,152.583 148.943,151.665 149.469 C 148.541 151.259,148.182 151.363,145.131 151.370 C 142.082 151.376,140.816 151.059,139.010 149.840 C 138.439 149.455,137.921 149.140,137.859 149.140 C 137.611 149.140,135.388 146.827,135.388 146.570 C 135.388 146.419,135.276 146.295,135.139 146.295 C 135.002 146.295,134.778 145.975,134.641 145.584 C 134.505 145.193,134.306 144.873,134.198 144.873 C 134.091 144.873,133.929 144.526,133.839 144.102 C 133.748 143.678,133.553 143.182,133.405 142.999 C 133.224 142.775,133.111 140.595,133.060 136.329 L 132.983 129.991 130.864 129.890 C 129.676 129.833,128.621 129.665,128.463 129.506 C 128.307 129.351,127.895 129.223,127.545 129.223 C 127.196 129.223,126.778 129.063,126.615 128.868 C 126.453 128.672,126.195 128.512,126.042 128.512 C 124.705 128.512,120.451 123.390,120.451 121.780 C 120.451 121.492,120.336 121.142,120.196 121.003 C 119.579 120.385,120.182 115.371,121.086 113.601 C 121.785 112.233,124.155 109.544,124.661 109.544 C 124.810 109.544,125.017 109.410,125.122 109.247 C 125.651 108.419,128.555 107.446,131.076 107.252 L 132.983 107.105 133.060 100.773 C 133.111 96.511,133.224 94.332,133.405 94.108 C 133.553 93.925,133.746 93.437,133.835 93.022 C 133.924 92.607,134.149 92.140,134.337 91.985 C 134.524 91.830,134.677 91.552,134.677 91.368 C 134.677 91.185,134.837 90.973,135.033 90.898 C 135.228 90.823,135.388 90.632,135.388 90.475 C 135.388 90.102,137.523 87.967,137.896 87.967 C 138.054 87.967,138.244 87.807,138.319 87.611 C 138.394 87.416,138.606 87.255,138.790 87.255 C 138.974 87.255,139.257 87.095,139.419 86.900 C 139.581 86.704,139.941 86.544,140.219 86.543 C 140.496 86.542,141.029 86.382,141.402 86.187 C 142.324 85.707,148.101 85.680,148.791 86.153 C 149.049 86.329,149.552 86.545,149.911 86.632 C 150.270 86.719,150.563 86.895,150.563 87.023 C 150.563 87.151,150.710 87.255,150.890 87.255 C 151.069 87.255,151.349 87.416,151.512 87.611 C 152.022 88.226,152.905 88.057,153.068 87.315 C 153.250 86.484,153.314 86.339,153.883 85.477 C 154.141 85.086,154.423 84.606,154.511 84.410 C 154.598 84.215,154.840 83.881,155.047 83.669 C 155.254 83.456,155.625 83.003,155.872 82.661 C 156.118 82.319,156.465 82.039,156.643 82.039 C 156.820 82.039,156.965 81.879,156.965 81.683 C 156.965 81.488,157.114 81.328,157.295 81.328 C 157.477 81.328,157.682 81.181,157.750 81.003 C 157.819 80.824,158.364 80.441,158.961 80.152 C 159.559 79.862,160.047 79.529,160.047 79.410 C 160.047 79.291,160.234 79.190,160.462 79.186 C 160.691 79.181,161.304 78.972,161.826 78.720 C 162.347 78.468,163.094 78.256,163.485 78.250 C 163.877 78.243,164.357 78.130,164.552 77.999 C 164.951 77.731,167.769 77.836,169.790 78.196 M232.128 83.107 C 229.170 83.570,226.440 85.464,225.474 87.725 C 225.335 88.048,225.143 88.368,225.046 88.436 C 223.769 89.331,223.745 148.192,225.022 148.192 C 225.120 148.192,225.271 148.475,225.358 148.820 C 225.540 149.546,228.357 152.460,228.876 152.460 C 229.068 152.460,229.358 152.620,229.520 152.816 C 229.682 153.011,230.048 153.171,230.333 153.171 C 230.619 153.171,231.059 153.328,231.312 153.519 C 231.628 153.758,232.368 153.868,233.669 153.868 C 234.970 153.868,235.711 153.758,236.026 153.519 C 236.279 153.328,236.773 153.171,237.124 153.171 C 237.474 153.171,237.893 153.011,238.056 152.816 C 238.218 152.620,238.489 152.460,238.659 152.460 C 239.777 152.460,242.327 148.979,243.000 146.532 C 243.619 144.281,243.680 93.969,243.066 90.968 C 242.493 88.160,240.773 85.300,239.218 84.569 C 239.035 84.484,238.726 84.322,238.530 84.211 C 237.307 83.518,236.819 83.352,235.329 83.122 C 234.178 82.945,233.196 82.940,232.128 83.107 M164.315 83.580 C 163.989 83.767,163.442 83.923,163.100 83.928 C 162.757 83.932,162.344 84.096,162.181 84.292 C 162.019 84.487,161.737 84.647,161.554 84.647 C 161.045 84.647,159.049 86.861,158.411 88.135 C 158.097 88.760,157.697 89.554,157.522 89.900 C 157.259 90.417,157.202 95.528,157.202 118.554 C 157.202 148.736,157.122 146.596,158.346 149.135 C 159.176 150.857,161.671 152.890,163.426 153.275 C 163.785 153.353,164.078 153.522,164.078 153.650 C 164.078 154.045,168.860 153.927,169.399 153.519 C 169.652 153.328,170.093 153.171,170.378 153.171 C 170.663 153.171,171.029 153.011,171.191 152.816 C 171.354 152.620,171.629 152.460,171.802 152.460 C 172.315 152.460,174.428 150.193,174.942 149.092 C 176.270 146.241,176.171 148.700,176.169 118.636 C 176.168 95.356,176.115 90.829,175.836 90.295 C 175.653 89.945,175.432 89.331,175.344 88.931 C 175.256 88.531,175.094 88.204,174.982 88.204 C 174.871 88.204,174.708 87.976,174.619 87.698 C 174.400 87.005,172.083 84.647,171.622 84.647 C 171.417 84.647,171.117 84.487,170.954 84.292 C 170.792 84.096,170.373 83.936,170.022 83.936 C 169.672 83.936,169.178 83.779,168.925 83.588 C 168.307 83.120,165.129 83.115,164.315 83.580 M253.705 90.947 C 252.149 91.458,250.622 92.298,250.622 92.645 C 250.622 92.810,250.475 92.946,250.294 92.946 C 250.114 92.946,249.904 93.133,249.827 93.361 C 249.750 93.589,249.585 93.936,249.459 94.132 C 248.457 95.687,248.488 94.904,248.488 118.695 C 248.488 131.625,248.579 141.344,248.699 141.418 C 248.815 141.490,248.980 141.825,249.065 142.164 C 249.225 142.804,249.291 142.907,250.230 143.985 C 250.961 144.825,252.424 145.819,252.945 145.829 C 253.167 145.833,253.556 145.993,253.809 146.184 C 254.407 146.636,256.524 146.627,257.129 146.169 C 257.382 145.978,257.753 145.821,257.954 145.821 C 258.446 145.821,260.580 144.349,260.580 144.009 C 260.581 143.860,260.741 143.676,260.937 143.601 C 261.132 143.526,261.292 143.336,261.292 143.180 C 261.292 143.023,261.435 142.726,261.609 142.520 C 262.872 141.025,262.887 96.012,261.624 94.587 C 261.442 94.381,261.291 94.115,261.289 93.994 C 261.258 92.202,256.144 90.148,253.705 90.947 M143.094 91.090 C 141.867 91.516,140.834 92.068,140.295 92.587 C 139.567 93.287,138.709 94.528,138.700 94.893 C 138.696 95.061,138.536 95.406,138.345 95.659 C 138.044 96.056,137.996 99.195,137.996 118.556 L 137.996 140.992 138.708 142.384 C 139.484 143.901,140.221 144.802,140.960 145.139 C 141.221 145.258,141.905 145.620,142.479 145.944 C 143.681 146.621,146.084 146.767,146.894 146.212 C 147.152 146.036,147.656 145.820,148.014 145.733 C 148.373 145.646,148.666 145.470,148.666 145.342 C 148.666 145.214,148.780 145.110,148.919 145.110 C 149.347 145.110,150.807 143.406,151.351 142.272 L 151.867 141.197 151.867 118.554 L 151.867 95.910 151.345 94.843 C 150.789 93.707,149.330 91.998,148.915 91.998 C 148.778 91.998,148.666 91.900,148.666 91.780 C 148.666 91.197,144.333 90.660,143.094 91.090 M129.698 112.527 C 129.372 112.708,128.931 112.858,128.719 112.860 C 128.507 112.861,128.200 113.023,128.038 113.219 C 127.876 113.414,127.619 113.574,127.469 113.574 C 127.075 113.574,125.937 114.941,125.594 115.827 C 124.687 118.167,124.590 118.872,125.047 119.834 C 125.258 120.278,125.430 120.762,125.430 120.910 C 125.430 121.791,127.130 123.570,128.512 124.134 C 128.708 124.214,129.218 124.431,129.646 124.617 C 130.733 125.089,132.686 125.067,132.873 124.580 C 132.952 124.374,133.017 121.662,133.017 118.554 C 133.017 115.445,132.952 112.733,132.873 112.527 C 132.690 112.048,130.560 112.049,129.698 112.527 M181.387 118.554 L 181.387 124.956 200.237 124.956 L 219.087 124.956 219.087 118.554 L 219.087 112.152 200.237 112.152 L 181.387 112.152 181.387 118.554 M267.694 118.554 L 267.694 124.956 268.465 124.948 C 270.362 124.929,273.859 122.898,273.859 121.816 C 273.859 121.672,274.026 121.370,274.231 121.144 C 274.886 120.420,274.731 116.665,273.998 115.504 C 273.146 114.155,271.551 112.947,270.363 112.751 C 269.809 112.659,269.296 112.487,269.223 112.368 C 269.149 112.249,268.775 112.152,268.391 112.152 L 267.694 112.152 267.694 118.554 " stroke="none" fill="#fbfcfb" fill-rule="evenodd"></path><path id="path1" d="M231.298 78.726 C 226.564 79.431,222.275 83.104,220.496 87.976 C 219.953 89.464,219.935 89.761,219.849 98.400 C 219.772 106.072,219.709 107.348,219.387 107.706 C 218.902 108.245,181.405 108.361,180.965 107.825 C 180.813 107.639,180.684 104.282,180.622 98.874 L 180.521 90.219 179.817 88.198 C 175.355 75.396,157.413 75.604,153.316 88.506 C 153.090 89.216,152.508 89.235,151.704 88.558 C 146.938 84.548,138.413 86.281,135.252 91.903 C 133.763 94.552,133.669 95.085,133.554 101.600 C 133.432 108.507,133.640 108.026,130.703 108.174 C 117.534 108.837,117.434 128.003,130.595 128.966 C 133.688 129.192,133.431 128.636,133.566 135.388 C 133.693 141.754,133.853 142.720,135.176 145.081 C 138.362 150.766,146.279 152.541,151.457 148.731 C 152.358 148.068,153.249 148.093,153.364 148.785 C 153.774 151.250,158.486 156.965,160.109 156.965 C 160.284 156.965,160.528 157.063,160.652 157.183 C 162.375 158.855,170.997 158.855,172.721 157.183 C 172.845 157.063,173.094 156.965,173.274 156.965 C 174.303 156.965,177.740 153.480,178.886 151.274 C 180.456 148.254,180.493 147.976,180.613 138.278 L 180.724 129.431 181.308 129.209 C 182.529 128.744,218.962 128.929,219.384 129.401 C 219.702 129.757,219.769 131.063,219.853 138.589 C 219.968 148.870,220.123 149.636,222.821 153.218 C 226.824 158.535,236.582 160.346,240.920 156.579 C 241.126 156.400,241.392 156.251,241.512 156.247 C 242.332 156.224,245.320 152.687,246.215 150.682 C 247.496 147.810,247.657 147.631,248.344 148.318 C 252.947 152.922,262.625 150.668,265.696 144.277 L 266.606 142.383 266.699 136.031 C 266.807 128.589,266.578 129.110,269.831 128.924 C 279.969 128.345,282.929 113.314,273.713 109.219 C 273.207 108.994,272.592 108.698,272.347 108.563 C 272.102 108.427,270.904 108.257,269.685 108.184 C 266.596 108.000,266.805 108.504,266.700 101.008 L 266.611 94.724 265.798 93.099 C 262.467 86.433,254.785 84.368,248.792 88.528 C 247.569 89.377,247.335 89.242,246.616 87.269 C 244.392 81.170,238.174 77.702,231.298 78.726 M236.459 82.458 C 236.620 82.587,237.018 82.774,237.344 82.873 C 239.718 83.596,242.307 86.229,243.402 89.034 C 244.613 92.137,243.994 149.140,242.749 149.140 C 242.645 149.140,242.561 149.278,242.561 149.446 C 242.561 149.614,241.947 150.407,241.197 151.208 C 236.259 156.486,227.768 155.206,224.496 148.689 L 223.711 147.125 223.646 118.672 C 223.577 88.526,223.542 89.671,224.565 87.967 C 224.683 87.771,224.875 87.398,224.993 87.137 C 226.529 83.729,234.156 80.617,236.459 82.458 M168.590 82.850 C 171.720 83.159,175.041 85.973,176.375 89.445 C 176.855 90.695,177.115 144.132,176.653 146.548 C 174.683 156.852,159.976 157.366,156.743 147.244 C 156.187 145.503,156.079 93.305,156.627 90.830 C 157.718 85.893,162.512 82.042,166.805 82.653 C 167.066 82.690,167.869 82.779,168.590 82.850 M148.077 90.734 C 150.189 91.698,151.362 92.976,152.279 95.317 C 152.911 96.932,152.925 140.102,152.293 141.782 C 149.961 147.987,142.336 149.026,138.658 143.641 C 137.250 141.580,137.264 141.864,137.337 117.691 L 137.404 95.673 137.975 94.555 C 139.883 90.822,144.468 89.087,148.077 90.734 M258.858 90.780 C 260.022 91.374,261.562 92.905,262.071 93.974 C 262.267 94.387,262.572 95.034,262.749 95.412 C 263.013 95.976,263.071 100.172,263.071 118.649 L 263.071 141.197 262.420 142.521 C 258.919 149.644,249.060 148.021,247.791 140.111 C 247.437 137.907,247.449 99.201,247.804 96.904 C 248.631 91.555,254.262 88.435,258.858 90.780 M133.373 118.554 L 133.373 125.311 131.403 125.380 C 129.740 125.439,129.262 125.365,128.332 124.906 C 121.426 121.498,123.816 111.485,131.476 111.734 L 133.373 111.796 133.373 118.554 M219.536 112.003 C 219.727 112.233,219.788 114.229,219.743 118.820 L 219.680 125.311 200.237 125.311 L 180.794 125.311 180.731 118.794 C 180.696 115.210,180.720 112.142,180.783 111.977 C 180.960 111.515,219.152 111.540,219.536 112.003 M271.325 112.250 C 276.750 114.774,276.885 122.202,271.556 124.921 C 270.420 125.500,267.529 125.644,267.030 125.145 C 266.625 124.740,266.625 112.367,267.030 111.962 C 267.536 111.456,269.971 111.619,271.325 112.250 " stroke="none" fill="#7eda58" fill-rule="evenodd"></path><path id="path2" d="M164.671 78.481 C 159.483 79.251,154.184 83.642,153.294 87.908 C 153.114 88.775,152.296 88.982,151.733 88.304 C 149.826 86.006,143.600 85.432,139.894 87.213 C 136.515 88.836,133.396 93.195,133.524 96.118 C 133.552 96.757,133.570 96.778,133.659 96.266 C 135.154 87.652,145.417 83.268,151.704 88.558 C 152.508 89.235,153.090 89.216,153.316 88.506 C 157.413 75.604,175.355 75.396,179.817 88.198 L 180.521 90.219 180.622 98.874 C 180.684 104.282,180.813 107.639,180.965 107.825 C 181.405 108.361,218.902 108.245,219.387 107.706 C 219.709 107.348,219.772 106.072,219.849 98.400 C 219.935 89.761,219.953 89.464,220.496 87.976 C 222.410 82.732,227.119 79.012,232.365 78.599 C 238.864 78.088,244.523 81.530,246.616 87.269 C 247.335 89.242,247.569 89.377,248.792 88.528 C 254.785 84.368,262.467 86.433,265.798 93.099 L 266.611 94.724 266.700 101.008 C 266.805 108.504,266.596 108.000,269.685 108.184 C 270.904 108.257,272.102 108.427,272.347 108.563 C 272.592 108.698,273.207 108.994,273.713 109.219 C 282.929 113.314,279.969 128.345,269.831 128.924 C 266.578 129.110,266.807 128.589,266.699 136.031 L 266.606 142.383 265.696 144.277 C 262.625 150.668,252.947 152.922,248.344 148.318 C 247.657 147.631,247.496 147.810,246.215 150.682 C 245.320 152.687,242.332 156.224,241.512 156.247 C 241.392 156.251,241.126 156.400,240.920 156.579 C 236.582 160.346,226.824 158.535,222.821 153.218 C 220.123 149.636,219.968 148.870,219.853 138.589 C 219.769 131.063,219.702 129.757,219.384 129.401 C 218.962 128.929,182.529 128.744,181.308 129.209 L 180.724 129.431 180.613 138.278 C 180.513 146.305,180.459 147.257,180.030 148.548 C 178.996 151.660,177.341 154.012,174.630 156.222 C 174.108 156.647,173.810 156.962,173.967 156.921 C 175.005 156.651,177.847 153.647,179.085 151.510 C 180.626 148.852,180.717 148.194,180.881 138.471 L 181.031 129.579 199.974 129.518 C 213.772 129.474,219.004 129.530,219.239 129.725 C 219.499 129.941,219.561 131.512,219.561 137.828 C 219.561 146.617,219.702 147.928,220.928 150.563 C 223.413 155.902,227.831 158.678,233.913 158.722 C 236.972 158.745,237.245 158.678,240.412 157.136 C 242.710 156.017,246.829 151.536,246.829 150.154 C 246.829 149.771,247.561 148.429,247.770 148.429 C 247.878 148.429,248.649 148.844,249.485 149.352 C 254.678 152.507,261.451 151.052,265.016 146.016 C 266.741 143.580,267.255 140.812,267.209 134.208 C 267.176 129.422,267.167 129.461,268.341 129.461 C 282.174 129.461,283.649 109.628,269.947 107.873 C 266.916 107.484,267.177 107.969,267.203 102.785 C 267.232 96.891,266.878 94.484,265.662 92.304 C 262.108 85.934,254.271 84.131,248.550 88.367 L 247.782 88.935 247.306 88.155 C 247.045 87.725,246.830 87.251,246.830 87.100 C 246.827 86.298,245.326 84.074,243.633 82.361 C 235.942 74.582,222.696 78.328,219.897 89.074 C 219.638 90.066,219.561 92.283,219.561 98.738 C 219.561 105.510,219.500 107.166,219.239 107.382 C 219.004 107.577,213.772 107.633,199.974 107.589 L 181.031 107.528 180.899 98.874 C 180.777 90.880,180.727 90.093,180.253 88.560 C 178.163 81.813,171.454 77.473,164.671 78.481 M230.824 82.543 C 228.298 83.458,225.744 85.470,224.993 87.137 C 224.875 87.398,224.683 87.771,224.565 87.967 C 223.542 89.671,223.577 88.526,223.646 118.672 L 223.711 147.125 224.496 148.689 C 227.768 155.206,236.259 156.486,241.197 151.208 C 241.947 150.407,242.561 149.614,242.561 149.446 C 242.561 149.278,242.645 149.140,242.749 149.140 C 243.994 149.140,244.613 92.137,243.402 89.034 C 242.307 86.229,239.718 83.596,237.344 82.873 C 237.018 82.774,236.620 82.587,236.459 82.458 C 235.817 81.945,232.331 81.997,230.824 82.543 M235.757 82.630 C 239.413 83.582,241.945 85.853,243.211 89.315 C 243.851 91.066,243.855 145.792,243.215 147.541 C 239.956 156.449,227.250 156.341,224.224 147.379 C 223.645 145.664,223.616 91.240,224.194 89.597 C 226.024 84.392,231.003 81.392,235.757 82.630 M164.897 82.767 C 160.923 83.270,157.577 86.532,156.627 90.830 C 156.166 92.913,156.150 145.689,156.609 146.696 C 156.769 147.046,156.846 137.902,156.846 118.712 L 156.846 90.209 157.631 88.615 C 159.530 84.759,162.248 83.106,166.686 83.107 C 171.140 83.108,173.861 84.828,175.764 88.847 L 176.526 90.456 176.596 117.605 C 176.645 136.683,176.588 145.212,176.403 146.295 C 174.827 155.540,161.867 157.289,157.689 148.821 C 157.293 148.018,156.968 147.543,156.967 147.764 C 156.964 148.395,158.494 150.829,159.495 151.786 C 165.270 157.306,175.175 154.282,176.653 146.548 C 177.115 144.132,176.855 90.695,176.375 89.445 C 175.041 85.973,171.720 83.159,168.590 82.850 C 167.869 82.779,167.066 82.690,166.805 82.653 C 166.544 82.616,165.685 82.667,164.897 82.767 M143.094 90.308 C 141.015 90.861,139.015 92.519,137.975 94.555 L 137.404 95.673 137.337 117.691 C 137.264 141.864,137.250 141.580,138.658 143.641 C 142.336 149.026,149.961 147.987,152.293 141.782 C 152.925 140.102,152.911 96.932,152.279 95.317 C 150.766 91.457,146.837 89.314,143.094 90.308 M253.231 90.304 C 252.176 90.618,250.860 91.287,250.860 91.508 C 250.860 91.626,251.366 91.440,251.986 91.095 C 255.368 89.208,260.197 90.831,262.110 94.498 C 262.331 94.924,262.475 95.043,262.476 94.802 C 262.480 93.882,260.427 91.628,258.807 90.771 C 257.798 90.238,254.405 89.954,253.231 90.304 M147.419 90.812 C 149.698 91.613,151.322 93.277,152.091 95.599 C 152.619 97.191,152.646 139.618,152.121 141.350 C 150.443 146.879,144.050 148.648,139.939 144.721 C 139.275 144.087,138.486 143.035,138.186 142.383 L 137.641 141.197 137.641 118.554 L 137.641 95.910 138.224 94.768 C 140.103 91.089,143.747 89.522,147.419 90.812 M249.601 92.768 C 248.434 94.209,248.101 94.974,247.803 96.904 C 247.449 99.201,247.437 137.909,247.791 140.111 C 249.060 148.021,258.919 149.644,262.420 142.521 L 263.071 141.197 263.071 118.506 C 263.071 99.384,263.018 95.767,262.739 95.507 C 262.460 95.247,262.442 95.274,262.621 95.673 C 263.054 96.640,263.016 139.790,262.580 141.290 C 260.632 147.995,252.020 148.715,248.677 142.453 L 248.133 141.434 248.068 119.036 C 247.995 93.900,247.919 95.092,249.718 93.014 C 250.215 92.439,250.622 91.922,250.622 91.865 C 250.622 91.600,250.356 91.836,249.601 92.768 M133.309 102.253 L 133.254 107.647 132.009 107.651 C 127.355 107.666,123.319 110.105,121.424 114.049 C 119.393 118.274,120.899 124.744,124.435 126.983 C 124.891 127.271,124.768 127.060,124.007 126.246 C 123.420 125.619,122.815 124.965,122.661 124.794 C 120.893 122.819,120.236 117.870,121.352 114.930 C 122.910 110.823,126.268 108.397,130.703 108.174 C 133.700 108.023,133.513 108.436,133.432 102.163 L 133.363 96.858 133.309 102.253 M128.394 112.242 C 121.438 115.580,123.744 125.649,131.403 125.380 L 133.373 125.311 133.373 118.554 L 133.373 111.796 131.476 111.734 C 129.881 111.683,129.391 111.763,128.394 112.242 M180.783 111.977 C 180.720 112.142,180.696 115.210,180.731 118.794 L 180.794 125.311 200.237 125.311 L 219.680 125.311 219.743 118.820 C 219.788 114.229,219.727 112.233,219.536 112.003 C 219.152 111.540,180.960 111.515,180.783 111.977 M267.030 111.962 C 266.625 112.367,266.625 124.740,267.030 125.145 C 267.529 125.644,270.420 125.500,271.556 124.921 C 275.945 122.681,276.818 116.853,273.266 113.495 C 271.674 111.989,267.925 111.068,267.030 111.962 M133.199 118.613 L 133.262 125.193 131.499 125.193 C 125.243 125.193,122.171 118.270,126.507 113.939 C 128.022 112.426,129.296 111.925,131.476 111.987 L 133.136 112.033 133.199 118.613 M219.443 118.554 L 219.443 125.074 200.178 125.135 L 180.913 125.195 180.913 118.713 C 180.913 115.148,180.985 112.159,181.072 112.071 C 181.160 111.984,189.829 111.939,200.337 111.973 L 219.443 112.033 219.443 118.554 M270.979 112.393 C 277.623 115.409,275.907 125.484,268.807 125.144 L 267.338 125.074 267.275 118.794 C 267.240 115.341,267.264 112.380,267.327 112.215 C 267.508 111.743,269.791 111.854,270.979 112.393 M125.293 127.534 C 125.780 128.323,129.331 129.363,132.069 129.518 L 133.136 129.579 133.271 135.507 C 133.379 140.259,133.487 141.670,133.817 142.620 C 136.010 148.945,142.153 152.392,148.132 150.654 C 149.430 150.277,151.728 149.071,152.014 148.616 C 152.317 148.135,153.043 148.566,153.299 149.379 C 155.544 156.521,164.380 160.790,171.310 158.082 C 173.260 157.320,173.882 156.974,173.314 156.969 C 173.111 156.967,172.845 157.063,172.721 157.183 C 170.997 158.855,162.375 158.855,160.652 157.183 C 160.528 157.063,160.284 156.965,160.109 156.965 C 158.486 156.965,153.774 151.250,153.364 148.785 C 153.249 148.093,152.358 148.068,151.457 148.731 C 146.279 152.541,138.362 150.766,135.176 145.081 C 133.853 142.720,133.693 141.754,133.566 135.388 C 133.431 128.636,133.688 129.191,130.594 128.970 C 128.532 128.823,127.938 128.683,126.740 128.061 C 125.197 127.261,125.103 127.226,125.293 127.534 " stroke="none" fill="#b4eca4" fill-rule="evenodd"></path><path id="path3" d="M232.775 78.179 C 233.196 78.232,233.943 78.233,234.435 78.181 C 234.926 78.130,234.582 78.087,233.669 78.086 C 232.756 78.085,232.354 78.127,232.775 78.179 M164.612 78.409 C 164.840 78.468,165.213 78.468,165.442 78.409 C 165.670 78.349,165.483 78.300,165.027 78.300 C 164.570 78.300,164.384 78.349,164.612 78.409 M162.418 78.838 C 161.661 79.271,161.823 79.273,163.011 78.845 C 163.533 78.657,163.746 78.502,163.485 78.501 C 163.225 78.500,162.745 78.652,162.418 78.838 M169.887 78.715 C 170.279 78.815,170.812 78.972,171.073 79.062 C 171.388 79.171,171.348 79.104,170.954 78.863 C 170.628 78.663,170.095 78.506,169.769 78.515 C 169.227 78.530,169.237 78.547,169.887 78.715 M229.046 78.838 C 228.271 79.281,228.542 79.286,229.552 78.847 C 229.991 78.657,230.190 78.501,229.994 78.500 C 229.798 78.500,229.372 78.652,229.046 78.838 M171.903 79.363 C 172.098 79.436,172.472 79.593,172.733 79.713 C 173.199 79.928,173.200 79.925,172.747 79.563 C 172.493 79.360,172.120 79.202,171.917 79.213 C 171.597 79.229,171.596 79.249,171.903 79.363 M241.494 80.295 C 243.630 82.360,245.166 83.677,243.983 82.430 C 243.266 81.673,242.359 80.831,241.968 80.560 C 241.577 80.288,241.363 80.169,241.494 80.295 M224.399 81.441 C 223.864 81.889,223.136 82.661,222.780 83.155 L 222.133 84.055 222.922 83.182 C 223.356 82.703,224.138 81.931,224.659 81.469 C 225.875 80.391,225.676 80.369,224.399 81.441 M156.361 82.573 L 155.424 83.580 156.432 82.643 C 157.369 81.771,157.548 81.565,157.369 81.565 C 157.330 81.565,156.877 82.018,156.361 82.573 M176.855 82.712 C 177.118 83.082,177.522 83.536,177.751 83.720 C 177.980 83.904,177.807 83.601,177.366 83.047 C 176.462 81.909,176.126 81.689,176.855 82.712 M233.254 82.444 C 233.548 82.500,234.028 82.500,234.321 82.444 C 234.615 82.387,234.375 82.341,233.788 82.341 C 233.201 82.341,232.961 82.387,233.254 82.444 M235.566 82.750 C 235.827 82.863,236.200 82.954,236.396 82.954 C 236.620 82.954,236.576 82.879,236.277 82.750 C 236.017 82.638,235.643 82.547,235.448 82.547 C 235.223 82.547,235.267 82.622,235.566 82.750 M169.532 83.440 C 169.727 83.551,170.154 83.712,170.480 83.799 L 171.073 83.956 170.480 83.599 C 170.154 83.402,169.727 83.241,169.532 83.240 C 169.216 83.239,169.216 83.261,169.532 83.440 M171.211 84.005 C 171.266 84.043,171.737 84.371,172.258 84.733 L 173.207 85.393 172.386 84.664 C 171.934 84.264,171.463 83.936,171.339 83.936 C 171.214 83.936,171.157 83.967,171.211 84.005 M239.792 84.672 C 240.290 85.115,241.021 85.851,241.415 86.307 C 242.017 87.005,242.056 87.024,241.657 86.426 C 241.169 85.696,240.201 84.752,239.360 84.186 C 239.099 84.010,239.293 84.229,239.792 84.672 M178.729 85.215 C 179.082 85.788,179.414 86.217,179.466 86.168 C 179.570 86.070,178.360 84.173,178.192 84.173 C 178.134 84.173,178.375 84.642,178.729 85.215 M245.883 85.003 C 245.883 85.133,246.095 85.560,246.354 85.951 C 246.968 86.878,246.969 86.549,246.355 85.542 C 246.095 85.115,245.882 84.873,245.883 85.003 M144.571 86.004 C 144.992 86.056,145.739 86.057,146.231 86.006 C 146.723 85.955,146.378 85.912,145.465 85.911 C 144.552 85.910,144.150 85.952,144.571 86.004 M158.646 86.959 C 158.063 87.812,158.027 87.912,158.499 87.374 C 159.126 86.658,159.664 85.833,159.503 85.833 C 159.456 85.833,159.070 86.340,158.646 86.959 M254.589 86.004 C 255.010 86.056,255.756 86.057,256.248 86.006 C 256.740 85.955,256.396 85.912,255.483 85.911 C 254.570 85.910,254.168 85.952,254.589 86.004 M142.027 86.310 C 141.777 86.474,141.918 86.498,142.501 86.391 C 143.524 86.204,143.717 86.069,142.956 86.074 C 142.641 86.076,142.223 86.182,142.027 86.310 M252.401 86.307 C 252.102 86.435,252.058 86.511,252.282 86.511 C 252.478 86.511,252.851 86.419,253.112 86.307 C 253.411 86.179,253.455 86.103,253.231 86.103 C 253.035 86.103,252.662 86.195,252.401 86.307 M220.311 87.147 C 219.914 88.019,219.990 88.205,220.419 87.412 C 220.620 87.042,220.740 86.695,220.685 86.641 C 220.631 86.587,220.463 86.814,220.311 87.147 M246.845 87.137 C 246.845 87.267,246.998 87.641,247.184 87.967 C 247.371 88.293,247.523 88.453,247.523 88.322 C 247.523 88.192,247.371 87.819,247.184 87.493 C 246.998 87.167,246.845 87.007,246.845 87.137 M249.167 87.744 L 248.607 88.232 249.318 87.816 C 250.255 87.267,250.268 87.255,249.977 87.255 C 249.839 87.255,249.475 87.475,249.167 87.744 M137.906 88.203 C 136.779 89.055,136.541 89.299,137.167 88.959 C 137.710 88.664,139.123 87.511,138.945 87.508 C 138.880 87.507,138.412 87.819,137.906 88.203 M151.718 88.263 C 152.054 88.691,153.171 88.845,153.171 88.463 C 153.171 88.345,152.957 88.304,152.696 88.373 C 152.434 88.441,152.034 88.351,151.807 88.173 C 151.432 87.879,151.424 87.887,151.718 88.263 M263.013 88.946 C 263.634 89.516,264.407 90.350,264.732 90.799 C 265.057 91.248,265.323 91.530,265.323 91.426 C 265.323 91.054,263.862 89.399,262.882 88.661 C 261.907 87.927,261.910 87.933,263.013 88.946 M157.478 88.807 C 157.080 89.679,157.156 89.865,157.586 89.072 C 157.786 88.702,157.906 88.355,157.852 88.301 C 157.798 88.246,157.629 88.474,157.478 88.807 M175.476 88.560 C 175.476 88.690,175.629 89.063,175.815 89.389 C 176.001 89.715,176.154 89.876,176.154 89.745 C 176.154 89.615,176.001 89.241,175.815 88.915 C 175.629 88.589,175.476 88.429,175.476 88.560 M135.388 90.812 C 135.110 91.203,134.935 91.523,135.000 91.523 C 135.066 91.523,135.347 91.203,135.625 90.812 C 135.904 90.421,136.079 90.101,136.013 90.101 C 135.948 90.101,135.667 90.421,135.388 90.812 M219.380 98.530 C 219.346 103.773,219.233 107.188,219.088 107.363 C 218.958 107.520,219.013 107.509,219.210 107.340 C 219.519 107.073,219.559 105.868,219.502 98.507 L 219.437 89.982 219.380 98.530 M144.458 90.508 C 144.816 90.562,145.403 90.562,145.762 90.508 C 146.120 90.453,145.827 90.409,145.110 90.409 C 144.392 90.409,144.099 90.453,144.458 90.508 M180.740 91.286 C 180.740 91.873,180.787 92.113,180.843 91.820 C 180.900 91.526,180.900 91.046,180.843 90.753 C 180.787 90.459,180.740 90.699,180.740 91.286 M254.001 90.501 C 254.229 90.561,254.603 90.561,254.831 90.501 C 255.059 90.442,254.873 90.393,254.416 90.393 C 253.960 90.393,253.773 90.442,254.001 90.501 M255.898 90.501 C 256.126 90.561,256.500 90.561,256.728 90.501 C 256.956 90.442,256.769 90.393,256.313 90.393 C 255.857 90.393,255.670 90.442,255.898 90.501 M257.973 90.931 C 258.299 91.117,258.672 91.270,258.803 91.270 C 258.933 91.270,258.773 91.117,258.447 90.931 C 258.121 90.744,257.747 90.592,257.617 90.592 C 257.487 90.592,257.647 90.744,257.973 90.931 M140.671 91.739 C 140.147 92.119,139.477 92.786,139.183 93.221 C 138.724 93.899,138.779 93.870,139.566 93.018 C 140.072 92.470,140.860 91.804,141.316 91.537 C 141.772 91.269,142.028 91.051,141.885 91.050 C 141.742 91.050,141.195 91.360,140.671 91.739 M156.843 118.672 C 156.843 133.800,156.871 140.023,156.906 132.502 C 156.940 124.981,156.940 112.604,156.906 104.998 C 156.871 97.391,156.843 103.545,156.843 118.672 M243.624 118.554 C 243.624 133.616,243.652 139.778,243.687 132.247 C 243.722 124.715,243.722 112.392,243.687 104.861 C 243.652 97.330,243.624 103.491,243.624 118.554 M150.089 92.590 C 150.531 93.047,150.947 93.420,151.012 93.420 C 151.077 93.420,150.768 93.047,150.326 92.590 C 149.884 92.134,149.468 91.761,149.403 91.761 C 149.338 91.761,149.647 92.134,150.089 92.590 M176.522 118.672 C 176.522 133.539,176.551 139.656,176.586 132.265 C 176.620 124.874,176.620 112.711,176.586 105.235 C 176.551 97.759,176.522 103.806,176.522 118.672 M260.965 93.209 C 261.601 94.066,262.162 94.735,262.210 94.697 C 262.329 94.603,260.684 92.378,260.197 91.974 C 259.983 91.796,260.328 92.352,260.965 93.209 M134.253 92.717 C 134.095 92.970,133.966 93.312,133.967 93.476 C 133.968 93.641,134.130 93.467,134.327 93.089 C 134.738 92.301,134.683 92.027,134.253 92.717 M249.217 93.571 C 248.947 93.914,248.729 94.315,248.733 94.460 C 248.737 94.605,248.858 94.511,249.003 94.250 C 249.148 93.989,249.428 93.589,249.625 93.361 C 249.823 93.133,249.922 92.946,249.846 92.946 C 249.771 92.946,249.487 93.227,249.217 93.571 M262.274 95.317 C 262.274 95.513,262.366 95.886,262.478 96.147 C 262.606 96.446,262.682 96.490,262.682 96.266 C 262.682 96.070,262.590 95.697,262.478 95.436 C 262.349 95.137,262.274 95.093,262.274 95.317 M266.916 96.266 C 266.989 96.983,267.088 97.614,267.135 97.668 C 267.311 97.873,267.178 95.890,266.985 95.436 C 266.860 95.141,266.834 95.454,266.916 96.266 M133.314 96.147 C 133.317 96.669,133.365 96.854,133.422 96.559 C 133.479 96.264,133.477 95.837,133.417 95.611 C 133.358 95.384,133.311 95.625,133.314 96.147 M152.145 96.621 C 152.324 97.793,152.461 97.993,152.456 97.076 C 152.454 96.695,152.351 96.224,152.226 96.028 C 152.072 95.786,152.046 95.975,152.145 96.621 M248.128 118.435 C 248.128 130.694,248.157 135.674,248.192 129.502 C 248.227 123.330,248.227 113.301,248.192 107.214 C 248.157 101.127,248.128 106.177,248.128 118.435 M137.636 118.554 C 137.636 130.616,137.665 135.551,137.700 129.520 C 137.735 123.488,137.735 113.619,137.700 107.587 C 137.665 101.556,137.636 106.491,137.636 118.554 M262.829 118.791 C 262.829 130.723,262.857 135.605,262.893 129.638 C 262.928 123.672,262.928 113.909,262.893 107.943 C 262.857 101.977,262.829 106.858,262.829 118.791 M267.319 102.312 C 267.319 104.790,267.354 105.771,267.397 104.493 C 267.440 103.214,267.439 101.187,267.396 99.988 C 267.353 98.788,267.319 99.834,267.319 102.312 M126.957 108.490 C 126.504 108.853,126.504 108.855,126.971 108.640 C 127.232 108.520,127.605 108.363,127.801 108.290 C 128.108 108.176,128.106 108.156,127.787 108.140 C 127.584 108.129,127.210 108.287,126.957 108.490 M129.994 112.078 C 130.222 112.138,130.596 112.138,130.824 112.078 C 131.052 112.018,130.865 111.970,130.409 111.970 C 129.953 111.970,129.766 112.018,129.994 112.078 M219.206 118.554 C 219.206 122.180,219.286 125.098,219.384 125.037 C 219.481 124.977,219.561 122.059,219.561 118.554 C 219.561 115.048,219.481 112.130,219.384 112.070 C 219.286 112.009,219.206 114.927,219.206 118.554 M267.378 112.073 C 267.159 112.292,267.178 124.902,267.398 125.037 C 267.496 125.098,267.576 122.170,267.576 118.531 C 267.576 114.892,267.567 111.915,267.556 111.915 C 267.545 111.915,267.465 111.986,267.378 112.073 M268.823 112.082 C 269.118 112.139,269.545 112.137,269.772 112.078 C 269.998 112.018,269.757 111.972,269.235 111.974 C 268.714 111.977,268.528 112.026,268.823 112.082 M126.852 113.594 L 125.785 114.561 126.971 113.661 C 127.623 113.166,128.201 112.731,128.255 112.694 C 128.310 112.656,128.256 112.626,128.137 112.627 C 128.017 112.627,127.439 113.062,126.852 113.594 M278.675 114.261 C 278.961 114.900,279.227 115.335,279.267 115.228 C 279.343 115.024,278.428 113.100,278.256 113.100 C 278.201 113.100,278.390 113.623,278.675 114.261 M273.300 114.056 C 273.580 114.378,274.034 115.067,274.308 115.586 C 274.583 116.106,274.807 116.397,274.807 116.234 C 274.807 115.818,273.778 114.231,273.239 113.815 C 272.890 113.546,272.903 113.598,273.300 114.056 M274.926 118.554 C 274.926 119.587,274.998 120.250,275.087 120.027 C 275.176 119.803,275.248 119.140,275.248 118.554 C 275.248 117.967,275.176 117.304,275.087 117.081 C 274.998 116.857,274.926 117.520,274.926 118.554 M120.289 118.554 C 120.289 119.401,120.332 119.748,120.385 119.324 C 120.438 118.900,120.438 118.207,120.385 117.783 C 120.332 117.359,120.289 117.706,120.289 118.554 M124.559 118.672 C 124.560 119.585,124.603 119.929,124.654 119.438 C 124.706 118.946,124.705 118.199,124.652 117.778 C 124.600 117.357,124.558 117.759,124.559 118.672 M279.625 118.672 C 279.627 120.136,279.651 120.224,279.827 119.420 C 279.936 118.919,279.935 118.172,279.824 117.761 C 279.662 117.158,279.623 117.335,279.625 118.672 M124.986 121.148 C 125.120 121.532,125.369 121.962,125.541 122.104 C 125.714 122.248,125.643 121.940,125.379 121.406 C 124.823 120.282,124.643 120.164,124.986 121.148 M120.706 121.887 C 120.696 122.090,120.854 122.464,121.056 122.717 C 121.419 123.170,121.422 123.170,121.207 122.703 C 121.087 122.442,120.929 122.069,120.857 121.873 C 120.743 121.566,120.723 121.568,120.706 121.887 M278.877 122.476 C 278.479 123.348,278.555 123.534,278.985 122.741 C 279.185 122.371,279.305 122.024,279.251 121.970 C 279.197 121.916,279.028 122.143,278.877 122.476 M127.768 124.230 C 128.076 124.499,128.440 124.718,128.578 124.718 C 128.870 124.718,128.856 124.707,127.919 124.158 L 127.208 123.742 127.768 124.230 M270.302 124.852 C 269.774 125.052,269.645 125.168,269.947 125.171 C 270.207 125.174,270.688 125.023,271.014 124.837 C 271.738 124.423,271.418 124.430,270.302 124.852 M276.584 126.082 C 275.946 126.832,275.671 127.232,275.972 126.971 C 276.544 126.476,277.998 124.718,277.836 124.718 C 277.785 124.718,277.221 125.332,276.584 126.082 M124.404 127.108 C 124.698 127.465,126.141 128.372,126.141 128.201 C 126.141 128.146,125.688 127.802,125.133 127.436 C 124.579 127.071,124.251 126.923,124.404 127.108 M126.852 128.631 C 127.178 128.817,127.552 128.970,127.682 128.970 C 127.813 128.970,127.653 128.817,127.327 128.631 C 127.001 128.444,126.627 128.292,126.497 128.292 C 126.366 128.292,126.526 128.444,126.852 128.631 M130.883 129.594 C 131.715 129.778,133.205 129.810,133.102 129.643 C 133.040 129.543,132.435 129.473,131.758 129.488 C 131.081 129.503,130.688 129.551,130.883 129.594 M181.068 129.638 C 181.008 129.736,189.564 129.816,200.082 129.816 L 219.206 129.816 219.329 137.996 L 219.452 146.177 219.507 138.103 C 219.548 132.078,219.489 129.957,219.277 129.745 C 218.954 129.422,181.267 129.317,181.068 129.638 M267.190 129.876 C 266.906 130.238,266.910 130.255,267.223 130.012 C 267.420 129.858,268.007 129.690,268.527 129.637 L 269.472 129.540 268.494 129.500 C 267.809 129.473,267.417 129.585,267.190 129.876 M267.319 134.795 C 267.319 137.273,267.354 138.255,267.397 136.976 C 267.440 135.698,267.439 133.671,267.396 132.471 C 267.353 131.272,267.319 132.318,267.319 134.795 M152.255 139.656 C 152.234 139.982,152.162 140.516,152.094 140.842 L 151.972 141.434 152.227 140.851 C 152.367 140.530,152.440 139.996,152.388 139.665 L 152.294 139.063 152.255 139.656 M267.021 140.041 C 267.000 140.449,266.930 141.143,266.865 141.583 L 266.747 142.383 266.997 141.588 C 267.134 141.150,267.204 140.457,267.152 140.046 L 267.059 139.301 267.021 140.041 M133.314 140.723 C 133.317 141.245,133.365 141.430,133.422 141.135 C 133.479 140.840,133.477 140.414,133.417 140.187 C 133.358 139.960,133.311 140.202,133.314 140.723 M262.376 141.214 C 262.289 141.562,262.263 141.892,262.319 141.948 C 262.375 142.004,262.492 141.765,262.579 141.418 C 262.667 141.070,262.692 140.740,262.636 140.684 C 262.580 140.628,262.463 140.867,262.376 141.214 M248.268 141.434 C 248.268 141.565,248.421 141.938,248.607 142.264 C 248.793 142.590,248.946 142.750,248.946 142.620 C 248.946 142.490,248.793 142.116,248.607 141.790 C 248.421 141.464,248.268 141.304,248.268 141.434 M138.400 142.857 C 138.618 143.314,138.879 143.687,138.981 143.687 C 139.083 143.687,138.946 143.314,138.676 142.857 C 138.407 142.401,138.146 142.027,138.095 142.027 C 138.045 142.027,138.182 142.401,138.400 142.857 M261.117 143.719 C 260.564 144.484,260.160 145.110,260.220 145.110 C 260.390 145.110,262.318 142.499,262.215 142.409 C 262.164 142.364,261.670 142.954,261.117 143.719 M133.966 143.626 C 133.966 143.783,134.179 144.262,134.439 144.689 C 135.053 145.696,135.053 145.368,134.440 144.223 C 134.179 143.737,133.966 143.468,133.966 143.626 M150.076 144.576 L 149.259 145.465 150.148 144.648 C 150.637 144.199,151.037 143.799,151.037 143.759 C 151.037 143.578,150.837 143.749,150.076 144.576 M140.869 145.549 C 141.442 145.993,142.725 146.712,142.495 146.459 C 142.278 146.220,140.590 145.110,140.444 145.110 C 140.367 145.110,140.558 145.307,140.869 145.549 M180.744 146.177 C 180.745 146.829,180.791 147.067,180.846 146.707 C 180.900 146.346,180.899 145.813,180.843 145.521 C 180.786 145.230,180.742 145.525,180.744 146.177 M223.863 145.940 C 223.865 146.434,224.494 148.251,224.519 147.836 C 224.527 147.706,224.382 147.119,224.197 146.532 C 224.012 145.945,223.862 145.679,223.863 145.940 M257.973 146.177 C 257.647 146.363,257.487 146.516,257.617 146.516 C 257.747 146.516,258.121 146.363,258.447 146.177 C 258.773 145.990,258.933 145.838,258.803 145.838 C 258.672 145.838,258.299 145.990,257.973 146.177 M147.007 146.429 C 146.434 146.645,146.328 146.747,146.665 146.756 C 146.933 146.763,147.360 146.613,147.613 146.421 C 148.154 146.012,148.105 146.013,147.007 146.429 M136.692 147.718 C 137.335 148.370,137.913 148.903,137.979 148.903 C 138.044 148.903,137.572 148.370,136.929 147.718 C 136.287 147.066,135.708 146.532,135.643 146.532 C 135.578 146.532,136.050 147.066,136.692 147.718 M254.001 146.696 C 254.229 146.755,254.603 146.755,254.831 146.696 C 255.059 146.636,254.873 146.587,254.416 146.587 C 253.960 146.587,253.773 146.636,254.001 146.696 M256.019 146.700 C 256.314 146.757,256.741 146.755,256.968 146.695 C 257.194 146.636,256.953 146.589,256.432 146.592 C 255.910 146.595,255.724 146.643,256.019 146.700 M263.020 148.198 C 262.471 148.716,262.103 149.140,262.202 149.140 C 262.301 149.140,262.798 148.714,263.308 148.192 C 264.499 146.972,264.315 146.976,263.020 148.198 M175.735 148.084 C 175.338 148.956,175.414 149.142,175.843 148.349 C 176.044 147.979,176.163 147.632,176.109 147.577 C 176.055 147.523,175.887 147.751,175.735 148.084 M152.341 148.666 C 152.994 148.947,153.226 148.947,153.053 148.666 C 152.972 148.536,152.672 148.437,152.387 148.446 C 151.886 148.462,151.884 148.470,152.341 148.666 M248.218 148.745 C 248.362 148.918,249.042 149.362,249.729 149.730 C 251.318 150.581,251.094 150.318,249.320 149.250 C 248.569 148.798,248.074 148.571,248.218 148.745 M157.676 148.833 C 157.676 149.249,159.378 151.388,160.285 152.112 C 160.940 152.636,160.895 152.555,160.068 151.728 C 159.492 151.153,158.719 150.207,158.349 149.628 C 157.979 149.048,157.676 148.690,157.676 148.833 M220.052 149.022 C 220.052 149.152,220.205 149.526,220.391 149.852 C 220.578 150.178,220.730 150.338,220.730 150.207 C 220.730 150.077,220.578 149.704,220.391 149.378 C 220.205 149.052,220.052 148.892,220.052 149.022 M225.725 150.267 C 226.036 150.691,226.327 151.037,226.372 151.037 C 226.552 151.037,225.964 150.148,225.575 149.832 C 225.319 149.624,225.376 149.790,225.725 150.267 M153.423 150.445 C 153.423 150.575,153.580 150.889,153.772 151.142 C 153.963 151.395,154.120 151.495,154.120 151.365 C 154.120 151.235,153.963 150.921,153.772 150.668 C 153.580 150.415,153.423 150.314,153.423 150.445 M173.419 151.459 C 172.753 152.075,172.006 152.713,171.759 152.878 C 171.512 153.043,171.630 153.025,172.021 152.838 C 172.628 152.548,175.052 150.313,174.738 150.333 C 174.678 150.337,174.085 150.843,173.419 151.459 M252.401 150.800 C 252.662 150.912,253.035 151.004,253.231 151.004 C 253.455 151.004,253.411 150.929,253.112 150.800 C 252.851 150.688,252.478 150.596,252.282 150.596 C 252.058 150.596,252.102 150.672,252.401 150.800 M257.736 150.800 C 257.247 150.957,257.226 150.994,257.617 151.010 C 257.878 151.021,258.251 150.927,258.447 150.800 C 258.862 150.532,258.574 150.532,257.736 150.800 M144.097 151.208 C 144.518 151.261,145.264 151.262,145.756 151.210 C 146.248 151.159,145.904 151.116,144.991 151.115 C 144.078 151.114,143.676 151.156,144.097 151.208 M254.713 151.207 C 255.071 151.262,255.658 151.262,256.017 151.207 C 256.375 151.153,256.082 151.108,255.365 151.108 C 254.647 151.108,254.354 151.153,254.713 151.207 M154.595 152.473 C 154.594 152.546,154.861 152.967,155.187 153.408 C 155.513 153.850,155.776 154.111,155.771 153.988 C 155.762 153.750,154.597 152.249,154.595 152.473 M222.164 153.164 C 222.440 153.551,222.787 153.943,222.935 154.035 C 223.083 154.126,222.905 153.809,222.540 153.330 C 221.747 152.291,221.449 152.159,222.164 153.164 M177.633 153.632 C 177.220 154.146,176.882 154.634,176.882 154.717 C 176.882 154.852,177.376 154.286,178.280 153.112 C 178.928 152.271,178.359 152.728,177.633 153.632 M244.312 154.049 C 243.810 154.663,243.522 155.088,243.674 154.995 C 243.996 154.795,245.498 152.934,245.336 152.934 C 245.276 152.934,244.815 153.436,244.312 154.049 M163.130 153.764 C 163.456 153.950,163.883 154.103,164.078 154.102 C 164.274 154.102,164.075 153.945,163.636 153.755 C 162.626 153.316,162.355 153.321,163.130 153.764 M165.797 154.292 C 166.286 154.344,167.087 154.344,167.576 154.292 C 168.065 154.241,167.664 154.199,166.686 154.199 C 165.708 154.199,165.308 154.241,165.797 154.292 M175.800 155.602 L 175.104 156.372 175.874 155.676 C 176.298 155.293,176.645 154.946,176.645 154.905 C 176.645 154.722,176.449 154.883,175.800 155.602 M224.424 155.514 C 224.906 156.090,226.518 157.208,226.848 157.195 C 226.948 157.191,226.627 156.939,226.133 156.636 C 225.640 156.332,224.947 155.829,224.594 155.517 L 223.951 154.950 224.424 155.514 M157.524 155.725 C 157.712 156.029,159.099 157.055,159.099 156.891 C 159.099 156.832,158.707 156.485,158.229 156.120 C 157.750 155.755,157.433 155.577,157.524 155.725 M161.944 158.269 C 162.270 158.455,162.750 158.607,163.011 158.606 C 163.272 158.605,163.059 158.450,162.537 158.262 C 161.349 157.834,161.187 157.836,161.944 158.269 M229.283 158.269 C 229.609 158.455,230.089 158.607,230.350 158.606 C 230.611 158.605,230.397 158.450,229.876 158.262 C 228.687 157.834,228.525 157.836,229.283 158.269 M237.819 158.269 C 237.493 158.455,237.333 158.608,237.463 158.608 C 237.593 158.608,237.967 158.455,238.293 158.269 C 238.619 158.083,238.779 157.930,238.648 157.930 C 238.518 157.930,238.145 158.083,237.819 158.269 M166.034 159.032 C 166.393 159.086,166.980 159.086,167.338 159.032 C 167.697 158.977,167.404 158.933,166.686 158.933 C 165.969 158.933,165.676 158.977,166.034 159.032 M233.254 159.033 C 233.678 159.086,234.372 159.086,234.795 159.033 C 235.219 158.981,234.873 158.938,234.025 158.938 C 233.177 158.938,232.830 158.981,233.254 159.033 " stroke="none" fill="#c5edb1" fill-rule="evenodd"></path><path id="path4" d="M164.552 77.999 C 164.357 78.130,163.877 78.243,163.485 78.250 C 163.094 78.256,162.347 78.468,161.826 78.720 C 161.304 78.972,160.702 79.181,160.488 79.186 C 160.273 79.190,160.038 79.350,159.965 79.540 C 159.850 79.841,159.933 79.844,160.592 79.564 C 162.628 78.699,163.383 78.480,165.027 78.274 C 167.513 77.962,172.016 78.763,172.958 79.685 C 173.330 80.049,173.644 79.933,173.325 79.549 C 173.163 79.354,172.910 79.193,172.763 79.192 C 172.616 79.192,172.175 79.021,171.784 78.813 C 170.426 78.093,165.276 77.512,164.552 77.999 M230.943 78.008 C 230.747 78.135,230.330 78.240,230.016 78.242 C 227.353 78.259,220.510 84.023,220.510 86.250 C 220.510 86.380,220.350 86.619,220.154 86.781 C 219.959 86.944,219.808 87.410,219.819 87.818 C 219.839 88.550,219.842 88.552,220.026 87.942 C 221.831 81.982,228.524 77.536,234.844 78.098 C 235.977 78.199,236.400 78.171,236.159 78.012 C 235.700 77.710,231.409 77.707,230.943 78.008 M237.351 78.464 C 240.346 79.051,244.717 82.385,246.145 85.171 C 246.432 85.731,246.714 86.049,246.772 85.878 C 246.830 85.708,246.706 85.379,246.497 85.148 C 246.288 84.917,246.117 84.615,246.117 84.476 C 246.117 84.337,245.957 84.162,245.762 84.087 C 245.566 84.012,245.406 83.803,245.406 83.623 C 245.406 83.345,243.060 81.008,242.032 80.261 C 241.396 79.799,240.778 79.426,240.427 79.292 C 240.231 79.217,239.633 78.951,239.097 78.700 C 238.561 78.450,237.761 78.258,237.318 78.273 L 236.515 78.300 237.351 78.464 M158.447 80.407 C 158.023 80.678,157.676 80.996,157.676 81.114 C 157.676 81.232,157.516 81.328,157.321 81.328 C 157.125 81.328,156.965 81.438,156.965 81.573 C 156.965 81.880,157.704 81.511,158.140 80.985 C 158.308 80.782,158.547 80.616,158.671 80.616 C 158.795 80.616,159.056 80.456,159.251 80.261 C 159.758 79.754,159.350 79.828,158.447 80.407 M174.274 80.380 C 174.600 80.632,175.265 81.135,175.751 81.498 C 176.238 81.861,177.080 82.721,177.622 83.409 C 178.165 84.096,178.660 84.608,178.722 84.546 C 179.003 84.265,176.078 81.190,174.697 80.314 C 173.829 79.763,173.536 79.808,174.274 80.380 M155.872 82.658 C 155.625 82.999,155.264 83.444,155.070 83.647 C 154.685 84.049,154.273 84.710,153.907 85.513 C 153.779 85.794,153.561 86.094,153.423 86.179 C 153.285 86.265,153.171 86.567,153.171 86.851 C 153.171 87.251,153.282 87.160,153.665 86.445 C 154.463 84.957,155.238 83.792,156.033 82.886 C 156.442 82.420,156.674 82.039,156.549 82.039 C 156.423 82.039,156.118 82.318,155.872 82.658 M231.417 82.887 C 230.667 83.192,231.966 83.213,233.551 82.921 C 234.065 82.827,236.859 83.337,237.277 83.603 C 237.953 84.032,238.549 84.040,237.931 83.612 C 236.514 82.630,233.007 82.240,231.417 82.887 M166.034 83.157 C 166.393 83.212,166.980 83.212,167.338 83.157 C 167.697 83.103,167.404 83.059,166.686 83.059 C 165.969 83.059,165.676 83.103,166.034 83.157 M163.248 83.589 C 162.558 83.905,162.554 83.915,163.130 83.917 C 163.456 83.918,163.989 83.767,164.315 83.580 C 165.129 83.115,164.268 83.122,163.248 83.589 M168.925 83.588 C 169.178 83.779,169.658 83.932,169.992 83.927 C 170.560 83.918,170.548 83.895,169.801 83.571 C 168.783 83.129,168.330 83.138,168.925 83.588 M229.176 83.661 C 227.708 84.486,225.812 86.300,225.353 87.320 C 225.163 87.741,224.917 88.245,224.806 88.441 C 223.943 89.960,223.951 89.720,223.877 117.724 C 223.800 147.364,223.763 146.418,225.087 148.980 C 225.759 150.281,227.903 152.337,229.221 152.945 C 229.842 153.231,230.535 153.559,230.761 153.674 C 230.988 153.789,231.308 153.879,231.473 153.875 C 231.997 153.862,230.879 153.171,230.333 153.171 C 230.048 153.171,229.682 153.011,229.520 152.816 C 229.358 152.620,229.068 152.460,228.876 152.460 C 228.357 152.460,225.540 149.546,225.358 148.820 C 225.271 148.475,225.120 148.192,225.022 148.192 C 223.745 148.192,223.769 89.331,225.046 88.436 C 225.143 88.368,225.335 88.048,225.474 87.725 C 226.104 86.251,227.454 84.932,229.223 84.060 C 229.908 83.723,230.468 83.397,230.468 83.336 C 230.468 83.121,229.868 83.272,229.176 83.661 M161.603 84.299 C 161.234 84.578,161.217 84.647,161.514 84.647 C 161.719 84.647,162.019 84.487,162.181 84.292 C 162.557 83.839,162.205 83.844,161.603 84.299 M170.954 84.292 C 171.117 84.487,171.423 84.644,171.635 84.640 C 171.960 84.633,171.948 84.577,171.561 84.284 C 170.962 83.831,170.576 83.836,170.954 84.292 M238.767 84.292 C 238.929 84.487,239.169 84.647,239.299 84.647 C 239.432 84.647,239.406 84.490,239.241 84.292 C 239.079 84.096,238.839 83.936,238.709 83.936 C 238.577 83.936,238.602 84.093,238.767 84.292 M160.144 85.446 C 159.063 86.541,158.067 87.952,157.568 89.095 C 157.087 90.200,157.172 90.741,157.662 89.685 C 158.620 87.619,159.084 86.878,160.020 85.926 C 160.591 85.344,161.018 84.831,160.968 84.786 C 160.918 84.741,160.547 85.038,160.144 85.446 M172.140 84.690 C 172.140 84.755,172.661 85.342,173.298 85.996 C 173.936 86.651,174.530 87.415,174.618 87.695 C 174.707 87.975,174.871 88.204,174.982 88.204 C 175.094 88.204,175.256 88.531,175.344 88.931 C 175.560 89.914,176.167 91.076,176.169 90.511 C 176.172 89.825,174.777 87.174,173.951 86.294 C 173.040 85.324,172.140 84.527,172.140 84.690 M239.715 84.760 C 239.715 84.870,240.017 85.237,240.385 85.575 C 241.563 86.656,242.700 88.887,243.051 90.812 C 243.281 92.072,243.401 92.388,243.462 91.897 C 243.593 90.850,242.839 88.469,241.956 87.137 C 241.151 85.922,239.715 84.399,239.715 84.760 M179.351 85.892 C 179.833 86.800,180.497 88.731,180.759 89.982 C 180.813 90.243,180.870 90.009,180.885 89.463 C 180.900 88.916,180.818 88.410,180.702 88.339 C 180.586 88.267,180.420 87.914,180.332 87.554 C 180.107 86.624,179.248 84.884,179.014 84.884 C 178.905 84.884,179.057 85.338,179.351 85.892 M141.316 86.229 L 140.723 86.580 141.434 86.428 C 141.826 86.345,142.573 86.190,143.094 86.084 L 144.043 85.892 142.976 85.886 C 142.389 85.882,141.642 86.037,141.316 86.229 M147.836 86.195 C 149.042 86.630,149.385 86.625,148.799 86.181 C 148.546 85.989,148.012 85.838,147.613 85.843 C 146.902 85.853,146.906 85.860,147.836 86.195 M251.808 86.128 C 249.486 87.159,248.726 87.552,248.726 87.719 C 248.726 88.125,247.749 88.170,247.623 87.771 C 247.386 87.024,246.986 86.308,246.870 86.424 C 246.778 86.516,247.432 88.276,247.699 88.652 C 247.735 88.703,248.114 88.481,248.541 88.159 C 249.693 87.292,250.797 86.774,252.519 86.292 C 253.791 85.937,253.916 85.862,253.231 85.863 C 252.774 85.864,252.134 85.983,251.808 86.128 M257.143 85.944 C 257.273 85.985,258.020 86.205,258.803 86.432 C 261.283 87.153,264.258 89.443,265.446 91.545 C 267.053 94.388,267.250 95.433,267.362 101.686 C 267.478 108.126,267.321 107.576,269.052 107.618 C 270.772 107.661,272.591 108.139,273.973 108.912 C 274.563 109.241,275.044 109.409,275.044 109.285 C 275.044 109.161,274.751 108.930,274.392 108.773 C 274.034 108.615,273.684 108.410,273.616 108.317 C 273.497 108.154,272.459 107.858,270.421 107.404 C 269.899 107.288,269.072 107.189,268.583 107.183 L 267.694 107.172 267.695 101.778 C 267.697 96.262,267.572 95.296,266.604 93.342 C 266.421 92.973,266.271 92.571,266.271 92.450 C 266.271 91.531,262.257 87.255,261.394 87.255 C 261.240 87.255,260.980 87.095,260.818 86.900 C 260.656 86.704,260.349 86.544,260.137 86.543 C 259.925 86.542,259.445 86.382,259.072 86.187 C 258.698 85.992,258.058 85.841,257.649 85.852 C 257.240 85.862,257.012 85.904,257.143 85.944 M139.529 86.796 C 139.443 86.934,139.117 87.145,138.803 87.264 C 138.490 87.383,138.234 87.583,138.234 87.707 C 138.234 87.832,138.740 87.656,139.360 87.317 C 140.787 86.536,140.779 86.544,140.184 86.544 C 139.909 86.544,139.614 86.657,139.529 86.796 M149.814 86.924 C 150.113 87.133,150.427 87.234,150.512 87.148 C 150.703 86.958,150.101 86.553,149.621 86.548 C 149.396 86.545,149.465 86.679,149.814 86.924 M151.415 87.853 C 152.210 88.544,153.021 88.541,153.105 87.848 C 153.137 87.587,153.103 87.507,153.029 87.670 C 152.843 88.081,151.870 88.042,151.512 87.611 C 151.349 87.416,151.106 87.255,150.971 87.255 C 150.837 87.255,151.036 87.525,151.415 87.853 M136.499 89.077 C 135.888 89.688,135.388 90.299,135.388 90.434 C 135.388 90.570,135.721 90.310,136.128 89.857 C 136.535 89.404,137.148 88.798,137.491 88.509 C 137.834 88.220,138.001 87.980,137.862 87.975 C 137.723 87.971,137.110 88.467,136.499 89.077 M219.331 89.253 C 219.180 89.650,219.087 93.191,219.087 98.534 L 219.087 107.172 200.178 107.173 L 181.269 107.173 181.336 100.237 C 181.373 96.423,181.306 92.715,181.186 91.998 C 181.031 91.068,180.960 93.062,180.941 98.939 L 180.913 107.184 181.484 107.401 C 182.375 107.740,218.587 107.727,218.995 107.387 C 219.264 107.164,219.324 105.594,219.324 98.762 C 219.324 93.227,219.414 90.153,219.589 89.650 C 219.912 88.723,219.672 88.355,219.331 89.253 M142.287 91.092 C 140.424 91.807,137.996 94.486,137.996 95.827 C 137.996 96.211,138.690 95.290,138.700 94.893 C 138.709 94.528,139.567 93.287,140.295 92.587 C 141.419 91.505,143.817 90.699,145.372 90.880 C 146.941 91.063,148.666 91.534,148.666 91.780 C 148.666 91.900,148.778 91.998,148.915 91.998 C 149.330 91.998,150.789 93.707,151.345 94.843 L 151.867 95.910 151.867 118.554 L 151.867 141.197 151.351 142.272 C 150.807 143.406,149.347 145.110,148.919 145.110 C 148.780 145.110,148.666 145.214,148.666 145.342 C 148.666 145.470,148.373 145.646,148.014 145.733 C 147.270 145.914,146.274 146.532,146.726 146.532 C 148.773 146.532,151.494 143.453,152.101 140.451 C 152.630 137.830,152.530 97.192,151.990 95.673 C 150.518 91.528,146.317 89.544,142.287 91.092 M157.080 118.554 C 157.080 134.007,157.108 140.329,157.143 132.602 C 157.178 124.876,157.178 112.232,157.143 104.505 C 157.108 96.778,157.080 103.100,157.080 118.554 M252.401 91.053 C 251.193 91.611,249.658 92.946,250.224 92.946 C 250.443 92.946,250.622 92.810,250.622 92.645 C 250.622 92.298,252.149 91.458,253.705 90.947 C 254.637 90.642,254.682 90.599,254.060 90.606 C 253.669 90.611,252.922 90.812,252.401 91.053 M256.313 90.661 C 256.313 90.708,256.926 90.939,257.676 91.174 C 258.964 91.577,261.278 93.384,261.289 93.994 C 261.291 94.115,261.442 94.381,261.624 94.587 C 262.887 96.012,262.872 141.025,261.609 142.520 C 261.435 142.726,261.292 143.023,261.292 143.180 C 261.292 143.336,261.132 143.526,260.937 143.601 C 260.741 143.676,260.581 143.860,260.580 144.009 C 260.580 144.349,258.446 145.821,257.954 145.821 C 257.532 145.821,256.533 146.513,256.939 146.525 C 257.956 146.553,260.151 145.080,261.179 143.680 C 262.772 141.509,262.709 142.537,262.712 118.590 C 262.715 94.278,262.799 95.500,260.966 93.165 C 259.775 91.648,256.313 89.785,256.313 90.661 M134.686 91.382 C 134.567 91.695,134.364 92.017,134.236 92.096 C 134.107 92.175,133.928 92.586,133.838 93.008 C 133.748 93.430,133.553 93.925,133.405 94.108 C 133.224 94.332,133.111 96.511,133.060 100.773 L 132.983 107.105 131.076 107.252 C 128.563 107.446,125.405 108.501,125.093 109.251 C 125.024 109.416,125.525 109.244,126.206 108.869 C 127.600 108.101,129.123 107.707,131.285 107.556 C 133.390 107.409,133.254 107.834,133.254 101.377 C 133.254 95.081,133.387 94.225,134.720 91.938 C 135.081 91.319,135.269 90.812,135.139 90.812 C 135.009 90.812,134.805 91.068,134.686 91.382 M176.285 118.672 C 176.285 133.930,176.314 140.137,176.349 132.465 C 176.383 124.794,176.383 112.310,176.349 104.724 C 176.314 97.138,176.285 103.414,176.285 118.672 M249.479 93.487 C 248.212 95.014,248.262 93.995,248.257 118.468 C 248.252 139.538,248.279 141.087,248.670 141.942 C 249.639 144.058,250.438 144.929,252.257 145.852 C 253.708 146.588,254.594 146.778,253.809 146.184 C 253.556 145.993,253.167 145.833,252.945 145.829 C 252.424 145.819,250.961 144.825,250.230 143.985 C 249.291 142.907,249.225 142.804,249.065 142.164 C 248.980 141.825,248.815 141.490,248.699 141.418 C 248.420 141.246,248.420 95.861,248.699 95.689 C 248.815 95.617,248.984 95.264,249.073 94.904 C 249.163 94.545,249.406 94.063,249.612 93.834 C 249.818 93.605,249.932 93.362,249.864 93.295 C 249.797 93.227,249.624 93.314,249.479 93.487 M137.873 118.554 C 137.873 130.877,137.902 135.919,137.937 129.757 C 137.972 123.595,137.972 113.512,137.937 107.350 C 137.902 101.189,137.873 106.230,137.873 118.554 M123.177 110.832 C 121.429 112.727,120.887 113.612,120.397 115.372 C 120.027 116.706,119.884 120.691,120.196 121.003 C 120.336 121.142,120.451 121.492,120.451 121.780 C 120.451 123.390,124.705 128.512,126.042 128.512 C 126.195 128.512,126.453 128.672,126.615 128.868 C 126.778 129.063,127.196 129.223,127.545 129.223 C 127.895 129.223,128.307 129.351,128.463 129.506 C 128.621 129.665,129.676 129.833,130.864 129.890 L 132.983 129.991 133.060 136.329 C 133.111 140.595,133.224 142.775,133.405 142.999 C 133.553 143.182,133.748 143.678,133.839 144.102 C 133.929 144.526,134.091 144.873,134.198 144.873 C 134.306 144.873,134.505 145.193,134.641 145.584 C 134.778 145.975,135.002 146.295,135.139 146.295 C 135.276 146.295,135.388 146.419,135.388 146.570 C 135.388 146.827,137.611 149.140,137.859 149.140 C 137.921 149.140,138.437 149.454,139.004 149.837 C 140.523 150.862,141.890 151.262,144.280 151.381 L 146.414 151.487 144.482 151.280 C 140.942 150.900,138.445 149.670,136.244 147.222 C 133.695 144.387,133.439 143.418,133.273 135.981 L 133.136 129.816 131.357 129.646 C 121.107 128.662,116.546 117.858,123.447 110.907 C 124.191 110.157,124.702 109.544,124.582 109.545 C 124.461 109.546,123.829 110.125,123.177 110.832 M276.402 110.688 C 277.564 111.825,278.945 113.958,279.315 115.185 C 279.486 115.750,279.511 115.764,279.529 115.301 C 279.550 114.759,278.651 112.806,278.315 112.665 C 278.212 112.622,278.127 112.459,278.127 112.303 C 278.127 112.147,277.940 111.848,277.712 111.637 C 277.484 111.426,276.935 110.869,276.493 110.399 C 276.051 109.928,275.587 109.544,275.461 109.544 C 275.336 109.544,275.759 110.058,276.402 110.688 M131.417 112.078 C 131.645 112.138,132.018 112.138,132.247 112.078 C 132.475 112.018,132.288 111.970,131.832 111.970 C 131.375 111.970,131.189 112.018,131.417 112.078 M200.356 112.092 L 219.087 112.155 219.087 118.555 L 219.087 124.956 200.237 124.956 L 181.387 124.956 181.387 118.554 C 181.387 114.444,181.302 112.152,181.150 112.152 C 180.998 112.152,180.913 114.442,180.913 118.549 L 180.913 124.947 181.446 125.076 C 181.740 125.147,190.356 125.175,200.593 125.139 L 219.206 125.074 219.206 118.554 L 219.206 112.033 200.415 112.031 L 181.624 112.029 200.356 112.092 M267.564 112.215 C 267.501 112.380,267.477 115.341,267.512 118.794 L 267.576 125.074 268.377 125.151 C 270.263 125.331,272.682 124.074,273.834 122.315 C 274.640 121.084,274.765 120.705,274.215 121.162 C 274.019 121.324,273.859 121.597,273.859 121.767 C 273.859 122.893,270.407 124.928,268.465 124.948 L 267.694 124.956 267.694 118.571 C 267.694 112.690,267.727 112.178,268.109 112.078 C 268.498 111.976,268.497 111.968,268.102 111.942 C 267.869 111.927,267.627 112.050,267.564 112.215 M128.868 112.457 C 128.607 112.609,128.144 112.878,127.840 113.055 C 127.535 113.231,127.347 113.437,127.423 113.513 C 127.499 113.589,127.748 113.485,127.977 113.283 C 128.206 113.081,128.739 112.842,129.161 112.753 C 129.584 112.663,129.990 112.491,130.065 112.371 C 130.254 112.064,129.439 112.123,128.868 112.457 M132.970 118.015 C 133.058 125.227,133.111 124.956,131.598 124.956 C 130.953 124.956,130.075 124.803,129.646 124.617 C 129.218 124.431,128.708 124.214,128.512 124.134 C 126.927 123.487,125.662 122.049,125.324 120.509 C 125.148 119.709,124.718 119.221,124.718 119.822 C 124.718 122.590,129.622 125.858,132.640 125.101 L 133.254 124.947 133.254 118.549 C 133.254 115.031,133.174 112.152,133.076 112.152 C 132.979 112.151,132.931 114.790,132.970 118.015 M269.223 112.368 C 269.296 112.487,269.809 112.659,270.363 112.751 C 271.526 112.942,273.209 114.198,273.922 115.406 C 274.180 115.844,274.440 116.155,274.498 116.097 C 274.705 115.890,273.431 114.140,272.628 113.527 C 271.310 112.523,268.787 111.664,269.223 112.368 M126.248 114.343 C 125.542 115.182,124.713 116.937,124.727 117.566 C 124.739 118.153,125.411 116.901,125.421 116.271 C 125.426 115.993,125.590 115.634,125.785 115.471 C 125.981 115.309,126.141 115.026,126.141 114.842 C 126.141 114.658,126.293 114.450,126.478 114.378 C 126.664 114.307,126.874 114.097,126.945 113.912 C 127.147 113.387,126.950 113.508,126.248 114.343 M279.677 116.894 C 279.922 118.283,279.925 118.917,279.692 120.213 C 279.532 121.107,279.553 121.230,279.821 120.972 C 280.264 120.547,280.250 116.544,279.805 116.124 C 279.543 115.878,279.521 116.010,279.677 116.894 M274.629 118.554 C 274.632 119.960,274.703 120.584,274.816 120.213 C 275.051 119.444,275.048 117.649,274.810 116.894 C 274.691 116.517,274.626 117.120,274.629 118.554 M279.345 121.721 C 279.177 124.014,275.356 128.033,272.436 128.989 L 271.844 129.183 272.479 129.203 C 272.828 129.214,273.274 129.063,273.469 128.868 C 273.665 128.672,273.947 128.512,274.097 128.512 C 274.436 128.512,277.178 126.420,277.178 126.162 C 277.178 126.058,277.439 125.692,277.757 125.349 C 278.577 124.464,279.590 122.355,279.474 121.772 C 279.392 121.355,279.372 121.347,279.345 121.721 M269.296 129.553 L 267.460 129.816 267.368 135.388 C 267.270 141.358,267.121 142.312,265.902 144.803 C 265.296 146.043,262.658 149.140,262.209 149.140 C 262.091 149.140,261.596 149.390,261.110 149.695 C 259.984 150.402,258.073 150.984,255.957 151.266 L 254.298 151.487 256.313 151.360 C 257.421 151.290,258.435 151.145,258.566 151.038 C 258.696 150.930,259.204 150.768,259.694 150.676 C 260.185 150.584,260.646 150.413,260.718 150.296 C 260.791 150.178,261.216 149.929,261.663 149.742 C 263.446 148.997,266.971 144.523,266.986 142.987 C 266.988 142.785,267.144 142.193,267.332 141.672 C 267.590 140.955,267.676 139.411,267.684 135.360 L 267.694 129.997 269.485 129.882 C 270.470 129.819,271.398 129.645,271.548 129.495 C 271.864 129.179,271.918 129.178,269.296 129.553 M181.072 129.854 C 180.985 129.942,180.925 133.811,180.941 138.451 C 180.960 144.405,181.032 146.504,181.184 145.584 C 181.303 144.867,181.371 141.053,181.334 137.107 L 181.269 129.935 200.178 129.935 L 219.087 129.935 219.087 138.478 C 219.087 145.536,219.149 147.170,219.443 147.873 C 219.638 148.341,219.798 148.965,219.798 149.259 C 219.798 149.553,219.959 149.927,220.154 150.089 C 220.350 150.251,220.510 150.571,220.510 150.800 C 220.510 151.029,220.670 151.349,220.865 151.512 C 221.061 151.674,221.221 151.907,221.221 152.029 C 221.221 153.347,226.709 158.151,228.215 158.151 C 228.430 158.151,228.765 158.311,228.961 158.506 C 229.175 158.720,229.711 158.851,230.307 158.835 L 231.298 158.807 230.468 158.619 C 226.346 157.680,222.912 154.958,220.996 151.108 C 219.526 148.154,219.495 147.918,219.344 138.471 L 219.206 129.816 200.219 129.756 C 189.776 129.722,181.160 129.767,181.072 129.854 M137.996 141.549 C 137.996 141.868,139.425 144.167,139.946 144.688 C 140.708 145.450,140.670 145.128,139.894 144.245 C 139.477 143.769,138.936 142.916,138.693 142.348 C 138.270 141.362,137.996 141.048,137.996 141.549 M140.842 145.225 C 140.842 145.472,142.789 146.554,143.052 146.454 C 143.206 146.396,142.939 146.178,142.458 145.970 C 141.978 145.761,141.519 145.483,141.437 145.350 C 141.286 145.106,140.842 145.013,140.842 145.225 M243.070 145.940 C 242.922 146.461,242.800 147.041,242.799 147.228 C 242.795 148.368,239.556 152.460,238.659 152.460 C 238.489 152.460,238.218 152.620,238.056 152.816 C 237.219 153.824,239.725 152.259,240.859 151.064 C 242.378 149.464,243.801 146.302,243.450 145.306 C 243.389 145.133,243.218 145.418,243.070 145.940 M144.343 146.704 C 144.769 146.757,145.410 146.756,145.766 146.702 C 146.122 146.648,145.774 146.604,144.991 146.606 C 144.209 146.607,143.917 146.651,144.343 146.704 M175.738 147.293 C 175.468 147.965,175.232 148.504,174.784 149.470 C 174.730 149.586,174.804 149.608,174.948 149.519 C 175.300 149.302,176.204 147.227,176.120 146.829 C 176.082 146.655,175.911 146.863,175.738 147.293 M157.208 147.092 C 157.187 148.776,160.477 152.640,162.537 153.351 C 162.928 153.487,163.435 153.673,163.663 153.765 C 163.907 153.864,164.078 153.827,164.078 153.675 C 164.078 153.534,163.785 153.353,163.426 153.275 C 162.226 153.012,161.141 152.351,159.937 151.150 C 158.816 150.031,158.495 149.532,157.582 147.481 C 157.356 146.973,157.211 146.822,157.208 147.092 M180.374 148.736 C 179.127 153.454,174.788 157.576,169.887 158.698 C 169.599 158.764,169.724 158.818,170.206 158.834 C 170.643 158.850,171.283 158.714,171.629 158.534 C 171.975 158.354,172.884 157.908,173.649 157.544 C 175.084 156.860,178.334 153.909,178.787 152.878 C 178.917 152.583,179.234 152.021,179.491 151.630 C 180.014 150.836,179.996 150.875,180.548 149.324 C 180.768 148.708,180.913 147.966,180.871 147.674 C 180.823 147.346,180.634 147.750,180.374 148.736 M247.422 149.138 C 247.336 149.527,247.168 149.907,247.048 149.982 C 246.927 150.056,246.829 150.294,246.829 150.511 C 246.829 151.028,247.435 150.208,247.579 149.496 C 247.643 149.182,247.828 149.049,248.129 149.102 C 248.518 149.171,248.537 149.130,248.269 148.806 C 247.812 148.256,247.597 148.340,247.422 149.138 M151.616 149.094 C 150.813 149.841,148.526 150.839,147.007 151.106 C 146.627 151.172,146.771 151.221,147.407 151.242 C 147.954 151.260,148.460 151.180,148.531 151.064 C 148.603 150.948,148.932 150.785,149.263 150.702 C 149.594 150.619,150.409 150.216,151.073 149.807 C 152.077 149.189,152.357 149.110,152.727 149.341 C 153.082 149.563,153.171 149.552,153.171 149.286 C 153.171 148.986,152.695 148.666,152.248 148.666 C 152.153 148.666,151.868 148.859,151.616 149.094 M248.726 149.400 C 248.726 149.525,249.017 149.737,249.373 149.873 C 249.729 150.008,250.076 150.200,250.143 150.300 C 250.362 150.621,252.702 151.275,253.512 151.242 C 254.152 151.216,254.188 151.191,253.705 151.107 C 252.442 150.888,250.758 150.310,249.764 149.754 C 249.193 149.435,248.726 149.276,248.726 149.400 M173.503 151.038 C 172.884 151.656,172.377 152.239,172.377 152.334 C 172.377 152.429,172.935 151.968,173.616 151.312 C 174.298 150.655,174.804 150.071,174.742 150.016 C 174.680 149.960,174.123 150.420,173.503 151.038 M153.175 150.490 C 153.173 150.776,153.285 151.080,153.424 151.166 C 153.812 151.406,153.834 151.214,153.491 150.563 C 153.191 149.995,153.178 149.992,153.175 150.490 M246.398 151.326 C 246.244 151.480,246.117 151.700,246.117 151.814 C 246.117 153.001,241.344 157.264,239.274 157.924 C 238.930 158.034,238.222 158.295,237.700 158.504 L 236.752 158.883 237.698 158.760 C 238.219 158.692,238.681 158.527,238.726 158.393 C 238.770 158.260,239.024 158.151,239.289 158.151 C 240.639 158.151,244.335 155.090,245.964 152.622 C 246.819 151.328,247.031 150.692,246.398 151.326 M153.883 151.768 C 153.883 152.130,154.573 153.066,155.865 154.457 C 156.337 154.966,156.464 155.031,156.282 154.674 C 156.139 154.392,155.924 154.125,155.804 154.081 C 155.685 154.037,155.203 153.417,154.735 152.703 C 154.266 151.988,153.883 151.568,153.883 151.768 M171.191 152.816 C 171.029 153.011,170.663 153.171,170.378 153.171 C 169.850 153.171,168.710 153.861,169.216 153.875 C 169.528 153.884,171.361 153.092,171.903 152.715 C 172.214 152.498,172.210 152.467,171.873 152.464 C 171.660 152.462,171.354 152.620,171.191 152.816 M236.026 153.519 C 235.431 153.970,235.884 153.978,236.902 153.536 C 237.649 153.212,237.661 153.189,237.093 153.181 C 236.760 153.175,236.279 153.328,236.026 153.519 M165.450 154.058 C 166.139 154.106,167.206 154.105,167.821 154.057 C 168.436 154.008,167.872 153.969,166.568 153.969 C 165.264 153.970,164.761 154.010,165.450 154.058 M232.786 154.057 C 233.344 154.107,234.198 154.106,234.683 154.055 C 235.169 154.004,234.713 153.963,233.669 153.964 C 232.626 153.965,232.229 154.006,232.786 154.057 M156.728 155.228 C 156.728 155.815,160.233 158.151,161.114 158.151 C 161.288 158.151,161.470 158.268,161.517 158.411 C 161.565 158.554,162.134 158.710,162.782 158.758 C 163.781 158.832,163.833 158.817,163.123 158.662 C 161.833 158.380,158.358 156.600,157.499 155.779 C 157.075 155.375,156.728 155.127,156.728 155.228 M164.495 159.195 C 164.720 159.321,165.706 159.423,166.686 159.423 C 167.667 159.423,168.653 159.321,168.878 159.195 C 169.160 159.037,168.480 158.966,166.686 158.966 C 164.893 158.966,164.213 159.037,164.495 159.195 M231.736 159.155 C 231.886 159.250,232.916 159.329,234.025 159.329 C 235.133 159.329,236.163 159.250,236.314 159.155 C 236.465 159.059,235.434 158.980,234.025 158.980 C 232.615 158.980,231.585 159.059,231.736 159.155 " stroke="none" fill="#e0f4d7" fill-rule="evenodd"></path></g></svg>